# xmcd CD database file
#
# Track frame offsets:
#	150
#	20736
#	37475
#	55068
#	72576
#
# Disc length: 1145 seconds
#
# Revision: 1
# Processed by: cddbd v1.5.2PL0 Copyright (c) Steve Scherf et al.
# Submitted via: CDex 1.70beta2
#
DISCID=4b047705
DTITLE=MEMPHIS MAY FIRE - MEMPHIS MAY FIRE
DYEAR=2007
DGENRE=Metalcore
TTITLE0=Cowbell's Makin' A Comeback
TTITLE1=Neutron Cameras VS. Smuggled Nuclear Bombs
TTITLE2=Therapy Caravan Of The Fair Room
TTITLE3=History Of Mercia
TTITLE4=Conjunctions, Conjunctions, Everybody Loves Them
EXTD=YEAR: 2007
EXTT0=
EXTT1=
EXTT2=
EXTT3=
EXTT4=
PLAYORDER=
